<svg width="188" height="88" viewBox="0 0 188 88" fill="none" xmlns="http://www.w3.org/2000/svg">
<path d="M89.918 1.59375C89.8724 1.93555 89.7243 2.20898 89.4736 2.41406C89.223 2.61914 88.9382 2.72168 88.6191 2.72168C88.5736 2.72168 88.4938 2.72168 88.3799 2.72168C88.266 2.69889 88.0039 2.6875 87.5938 2.6875C87.1608 2.6875 86.6025 2.73307 85.9189 2.82422C85.2581 2.91536 84.5176 3.10905 83.6973 3.40527C82.8997 3.67871 82.0566 4.08887 81.168 4.63574C80.3021 5.18262 79.4476 5.92318 78.6045 6.85742C77.7614 7.76888 76.9639 8.9082 76.2119 10.2754C75.46 11.6198 74.8219 13.249 74.2979 15.1631C74.0244 16.1201 73.7054 17.4987 73.3408 19.2988C72.999 21.0762 72.623 23.0814 72.2129 25.3145C71.8255 27.5475 71.4268 29.9287 71.0166 32.458C70.6292 34.9873 70.2533 37.471 69.8887 39.9092C69.5469 42.3473 69.2279 44.6715 68.9316 46.8818C68.6354 49.0693 68.4076 50.9492 68.248 52.5215C68.2025 52.8177 68.0658 53.0798 67.8379 53.3076C67.6328 53.5583 67.3708 53.6836 67.0518 53.6836C66.7327 53.6836 66.4479 53.6038 66.1973 53.4443C65.9694 53.2848 65.8099 53.0456 65.7188 52.7266C65.4225 51.6328 64.9554 50.1175 64.3174 48.1807C63.6794 46.2438 62.9388 44.0677 62.0957 41.6523C61.2754 39.2142 60.3753 36.6279 59.3955 33.8936C58.4157 31.1592 57.4359 28.459 56.4561 25.793C55.499 23.1042 54.5648 20.5407 53.6533 18.1025C52.7646 15.6416 51.9785 13.4769 51.2949 11.6084C51.181 12.8844 50.9987 14.3086 50.748 15.8809C50.5202 17.4303 50.2012 19.1051 49.791 20.9053C49.4036 22.6826 48.9137 24.5739 48.3213 26.5791C47.7288 28.5615 47.0225 30.6237 46.2021 32.7656C44.9261 36.0469 43.4222 38.8496 41.6904 41.1738C39.9814 43.498 38.1813 45.4349 36.29 46.9844C34.3988 48.5339 32.4733 49.7643 30.5137 50.6758C28.5768 51.5645 26.7539 52.2367 25.0449 52.6924C23.3359 53.1481 21.7979 53.4329 20.4307 53.5469C19.0635 53.6836 18.0153 53.752 17.2861 53.752C14.7796 53.752 12.4668 53.4215 10.3477 52.7607C8.2513 52.0999 6.42839 51.1657 4.87891 49.958C3.35221 48.7275 2.15592 47.2692 1.29004 45.583C0.44694 43.874 0.0253906 41.9941 0.0253906 39.9434C0.0253906 38.0977 0.435547 36.3773 1.25586 34.7822C2.09896 33.1644 3.21549 31.763 4.60547 30.5781C6.01823 29.3932 7.62467 28.459 9.4248 27.7754C11.2477 27.0918 13.139 26.75 15.0986 26.75C16.7165 26.75 18.1634 26.9095 19.4395 27.2285C20.7383 27.5475 21.8776 27.9577 22.8574 28.459C23.86 28.9375 24.7145 29.4616 25.4209 30.0312C26.1501 30.6009 26.7425 31.1478 27.1982 31.6719C27.6768 32.1732 28.0299 32.6061 28.2578 32.9707C28.5085 33.3353 28.6566 33.5518 28.7021 33.6201C28.7933 33.8024 28.8389 34.0075 28.8389 34.2354C28.8389 34.5544 28.7135 34.8506 28.4629 35.124C28.235 35.3975 27.9274 35.5342 27.54 35.5342C27.0387 35.5342 26.6628 35.3063 26.4121 34.8506C26.3893 34.7822 26.1615 34.4632 25.7285 33.8936C25.3184 33.3011 24.6689 32.6631 23.7803 31.9795C22.9144 31.2959 21.7865 30.6807 20.3965 30.1338C19.0065 29.5641 17.3203 29.2793 15.3379 29.2793C13.7201 29.2793 12.1364 29.5527 10.5869 30.0996C9.06022 30.6465 7.70443 31.3984 6.51953 32.3555C5.33464 33.3125 4.3776 34.4518 3.64844 35.7734C2.94206 37.0723 2.58887 38.485 2.58887 40.0117C2.58887 41.6751 2.97624 43.2018 3.75098 44.5918C4.52572 45.959 5.57389 47.1325 6.89551 48.1123C8.23991 49.0921 9.78939 49.8555 11.5439 50.4023C13.3213 50.9264 15.2126 51.1885 17.2178 51.1885C17.9925 51.1885 19.0179 51.1315 20.2939 51.0176C21.57 50.9036 22.9941 50.6416 24.5664 50.2314C26.1615 49.8213 27.8363 49.2061 29.5908 48.3857C31.3454 47.5426 33.0771 46.4033 34.7861 44.9678C36.4951 43.5322 38.1243 41.7435 39.6738 39.6016C41.2461 37.4596 42.6247 34.862 43.8096 31.8086C45.04 28.6641 45.9971 25.679 46.6807 22.8535C47.387 20.0052 47.9111 17.4417 48.2529 15.1631C48.5947 12.8844 48.7998 10.9476 48.8682 9.35254C48.9593 7.7347 49.0049 6.58398 49.0049 5.90039V5.2168C49.0049 4.85221 49.1188 4.5446 49.3467 4.29395C49.5973 4.02051 49.9163 3.88379 50.3037 3.88379C50.8734 3.88379 51.2721 4.16862 51.5 4.73828C51.5684 4.89779 51.762 5.43327 52.0811 6.34473C52.4229 7.25618 52.8558 8.44108 53.3799 9.89941C53.9268 11.335 54.542 12.9984 55.2256 14.8896C55.932 16.7809 56.6725 18.7975 57.4473 20.9395C58.222 23.0586 59.0195 25.2575 59.8398 27.5361C60.6602 29.8148 61.4577 32.0592 62.2324 34.2695C63.0299 36.4798 63.7819 38.6104 64.4883 40.6611C65.1947 42.7119 65.8327 44.5804 66.4023 46.2666C66.653 44.4437 66.9264 42.5182 67.2227 40.4902C67.5189 38.4395 67.8265 36.3773 68.1455 34.3037C68.4873 32.2074 68.8177 30.1566 69.1367 28.1514C69.4785 26.1462 69.8089 24.2663 70.1279 22.5117C70.4697 20.7572 70.7773 19.1849 71.0508 17.7949C71.3242 16.4049 71.5749 15.2884 71.8027 14.4453C72.304 12.4401 73.0218 10.5716 73.9561 8.83984C74.8903 7.08529 76.0182 5.55859 77.3398 4.25977C78.6842 2.96094 80.2109 1.94694 81.9199 1.21777C83.6517 0.46582 85.5658 0.0898438 87.6621 0.0898438C88.4596 0.0898438 89.0293 0.18099 89.3711 0.363281C89.7357 0.545573 89.918 0.898763 89.918 1.42285V1.59375ZM83.3555 49.2402C83.834 49.901 84.4492 50.4365 85.2012 50.8467C85.9531 51.234 86.876 51.4277 87.9697 51.4277C89.0863 51.4277 90.1003 51.1657 91.0117 50.6416C91.9232 50.0947 92.7549 49.3883 93.5068 48.5225C94.2588 47.6566 94.931 46.6882 95.5234 45.6172C96.1159 44.5462 96.6514 43.4753 97.1299 42.4043C97.2438 42.1536 97.4033 41.9714 97.6084 41.8574C97.8135 41.7207 98.0413 41.6523 98.292 41.6523C98.6794 41.6523 98.987 41.7891 99.2148 42.0625C99.4655 42.3359 99.5908 42.6322 99.5908 42.9512C99.5908 43.0651 99.5794 43.1676 99.5566 43.2588C99.5339 43.3271 99.4997 43.4069 99.4541 43.498C97.8818 46.9616 96.1615 49.5706 94.293 51.3252C92.4473 53.0798 90.3509 53.9798 88.0039 54.0254C86.5 54.0254 85.2012 53.7292 84.1074 53.1367C83.0137 52.5671 82.1136 51.8265 81.4072 50.915C80.7008 49.9808 80.1768 48.9326 79.835 47.7705C79.4932 46.6084 79.3223 45.4463 79.3223 44.2842C79.3223 43.1221 79.459 42.0511 79.7324 41.0713C80.0286 40.0915 80.4388 39.237 80.9629 38.5078C81.5098 37.7786 82.1478 37.209 82.877 36.7988C83.6289 36.3887 84.4492 36.1836 85.3379 36.1836C85.862 36.1836 86.3747 36.2975 86.876 36.5254C87.4001 36.7305 87.8672 37.0381 88.2773 37.4482C88.6875 37.8356 89.0179 38.3141 89.2686 38.8838C89.5192 39.4535 89.6445 40.1029 89.6445 40.832C89.6445 41.7663 89.485 42.6436 89.166 43.4639C88.847 44.2842 88.4027 45.0475 87.833 45.7539C87.2861 46.4603 86.6253 47.1097 85.8506 47.7021C85.0758 48.2946 84.2441 48.8073 83.3555 49.2402ZM82.3301 47.0186C83.0365 46.7223 83.6745 46.3464 84.2441 45.8906C84.8366 45.4349 85.3379 44.9336 85.748 44.3867C86.1582 43.8398 86.4772 43.2702 86.7051 42.6777C86.9329 42.0625 87.0469 41.4473 87.0469 40.832C87.0469 40.1484 86.876 39.6357 86.5342 39.2939C86.1924 38.9294 85.7936 38.7471 85.3379 38.7471C84.7227 38.7471 84.1986 38.918 83.7656 39.2598C83.3327 39.6016 82.9795 40.0459 82.7061 40.5928C82.4326 41.1396 82.2275 41.7549 82.0908 42.4385C81.9769 43.0993 81.9199 43.7601 81.9199 44.4209C81.9199 44.8311 81.9541 45.264 82.0225 45.7197C82.1136 46.1755 82.2161 46.6084 82.3301 47.0186ZM123.585 43.4639C123.494 43.6462 123.3 44.0335 123.004 44.626C122.73 45.1956 122.366 45.8564 121.91 46.6084C121.477 47.3604 120.965 48.1465 120.372 48.9668C119.78 49.7871 119.119 50.5391 118.39 51.2227C117.66 51.9062 116.874 52.4759 116.031 52.9316C115.188 53.3646 114.299 53.5811 113.365 53.5811C112.044 53.5811 110.927 53.1595 110.016 52.3164C109.127 51.4733 108.478 50.4137 108.067 49.1377C107.293 50.4365 106.37 51.4733 105.299 52.248C104.228 53 103.157 53.376 102.086 53.376C101.243 53.376 100.479 53.2279 99.7959 52.9316C99.1123 52.6126 98.5312 52.1797 98.0527 51.6328C97.5742 51.0632 97.1982 50.4023 96.9248 49.6504C96.6742 48.8984 96.5488 48.0781 96.5488 47.1895C96.5488 45.4121 96.8451 43.8512 97.4375 42.5068C98.0527 41.1396 98.8275 40.0003 99.7617 39.0889C100.696 38.1774 101.721 37.4938 102.838 37.0381C103.977 36.5824 105.071 36.3545 106.119 36.3545C106.826 36.3545 107.475 36.457 108.067 36.6621C108.66 36.8444 109.161 37.0495 109.571 37.2773C110.004 37.5052 110.335 37.7217 110.562 37.9268C110.79 38.109 110.916 38.2116 110.938 38.2344C111.189 38.5306 111.314 38.8382 111.314 39.1572C111.314 39.499 111.189 39.8066 110.938 40.0801C110.688 40.3307 110.392 40.4561 110.05 40.4561C109.685 40.4561 109.378 40.3307 109.127 40.0801C109.081 40.0345 108.979 39.9548 108.819 39.8408C108.66 39.7041 108.443 39.5674 108.17 39.4307C107.896 39.2939 107.566 39.18 107.179 39.0889C106.814 38.9749 106.393 38.918 105.914 38.918C105.208 38.918 104.456 39.0775 103.658 39.3965C102.861 39.7155 102.132 40.2168 101.471 40.9004C100.81 41.5612 100.252 42.4043 99.7959 43.4297C99.363 44.4323 99.1465 45.6286 99.1465 47.0186C99.1465 47.4515 99.1921 47.8958 99.2832 48.3516C99.3743 48.7845 99.5339 49.1833 99.7617 49.5479C99.9896 49.9124 100.297 50.2087 100.685 50.4365C101.072 50.6644 101.55 50.7783 102.12 50.7783C102.53 50.7783 102.997 50.6416 103.521 50.3682C104.068 50.0947 104.581 49.6732 105.06 49.1035C105.561 48.5339 106.005 47.8161 106.393 46.9502C106.803 46.0843 107.088 45.0589 107.247 43.874C107.293 43.555 107.441 43.293 107.691 43.0879C107.942 42.86 108.238 42.7461 108.58 42.7461C108.899 42.7461 109.173 42.8714 109.4 43.1221C109.651 43.3727 109.788 43.6576 109.811 43.9766C109.833 44.4095 109.879 45.0247 109.947 45.8223C110.016 46.597 110.164 47.3717 110.392 48.1465C110.642 48.9212 111.007 49.5934 111.485 50.1631C111.964 50.7327 112.625 51.0176 113.468 51.0176C114.015 51.0176 114.55 50.8695 115.074 50.5732C115.621 50.277 116.145 49.8896 116.646 49.4111C117.171 48.9098 117.66 48.3516 118.116 47.7363C118.595 47.0983 119.028 46.4603 119.415 45.8223C119.802 45.1842 120.144 44.569 120.44 43.9766C120.737 43.3841 120.987 42.8714 121.192 42.4385C121.306 42.1878 121.466 41.9941 121.671 41.8574C121.899 41.7207 122.138 41.6523 122.389 41.6523C122.776 41.6523 123.084 41.8005 123.312 42.0967C123.562 42.3701 123.688 42.6663 123.688 42.9854C123.688 43.1449 123.653 43.3044 123.585 43.4639ZM138.761 43.4639C138.761 45.5602 138.385 47.349 137.633 48.8301C136.881 50.3112 135.958 51.4391 134.864 52.2139H135.001C136.345 52.2139 137.564 51.9176 138.658 51.3252C139.775 50.71 140.777 49.9352 141.666 49.001C142.555 48.0439 143.352 46.9844 144.059 45.8223C144.765 44.6602 145.392 43.5322 145.938 42.4385C146.052 42.1878 146.212 41.9941 146.417 41.8574C146.645 41.7207 146.884 41.6523 147.135 41.6523C147.522 41.6523 147.83 41.7891 148.058 42.0625C148.285 42.3359 148.399 42.6322 148.399 42.9512C148.399 43.1335 148.365 43.3044 148.297 43.4639C147.704 44.7855 146.998 46.1185 146.178 47.4629C145.357 48.7845 144.4 49.9808 143.307 51.0518C142.213 52.1227 140.982 52.9886 139.615 53.6494C138.248 54.333 136.733 54.6748 135.069 54.6748C133.862 54.6748 132.688 54.4811 131.549 54.0938C130.41 53.7292 129.407 53.1481 128.541 52.3506C128.222 52.0999 127.949 51.8379 127.721 51.5645C127.493 51.2682 127.311 50.9948 127.174 50.7441C127.128 50.6986 127.105 50.653 127.105 50.6074C126.969 50.4023 126.9 50.1859 126.9 49.958C126.9 49.6618 127.003 49.3883 127.208 49.1377C127.231 49.0921 127.254 49.0693 127.276 49.0693C127.299 49.0465 127.322 49.0238 127.345 49.001C127.573 48.7959 127.823 48.682 128.097 48.6592H128.199C128.313 48.6592 128.393 48.6706 128.438 48.6934C128.461 48.6934 128.473 48.7048 128.473 48.7275C128.495 48.7275 128.518 48.7275 128.541 48.7275C128.609 48.7275 128.689 48.7503 128.78 48.7959C128.803 48.8187 128.826 48.8301 128.849 48.8301C129.054 48.9668 129.225 49.1377 129.361 49.3428C129.521 49.6162 129.703 49.8669 129.908 50.0947C130.09 50.277 130.307 50.4479 130.558 50.6074C130.808 50.7441 131.093 50.8125 131.412 50.8125C131.982 50.8125 132.551 50.6416 133.121 50.2998C133.691 49.958 134.203 49.4681 134.659 48.8301C135.115 48.1921 135.479 47.4173 135.753 46.5059C136.049 45.5944 136.197 44.5804 136.197 43.4639C136.197 42.6436 136.106 41.9486 135.924 41.3789C135.764 40.7865 135.548 40.3079 135.274 39.9434C135.024 39.5788 134.75 39.3167 134.454 39.1572C134.158 38.9749 133.873 38.8838 133.6 38.8838C132.984 38.8838 132.358 39.2028 131.72 39.8408C131.104 40.4788 130.489 41.2878 129.874 42.2676C129.259 43.2474 128.644 44.3298 128.028 45.5146C127.436 46.6995 126.832 47.8503 126.217 48.9668C126.171 52.6582 126.103 56.1787 126.012 59.5283C125.943 62.8779 125.807 65.9883 125.602 68.8594C125.419 71.7305 125.157 74.3281 124.815 76.6523C124.474 78.9766 124.007 80.959 123.414 82.5996C122.822 84.263 122.092 85.5391 121.227 86.4277C120.361 87.3164 119.301 87.7607 118.048 87.7607C117.66 87.7607 117.216 87.681 116.715 87.5215C116.214 87.362 115.746 87.0316 115.313 86.5303C114.881 86.0518 114.516 85.3568 114.22 84.4453C113.924 83.5339 113.775 82.3148 113.775 80.7881C113.775 78.8512 114.015 76.6068 114.493 74.0547C114.972 71.5026 115.655 68.791 116.544 65.9199C117.41 63.0716 118.447 60.1436 119.654 57.1357C120.862 54.1279 122.195 51.1999 123.653 48.3516C123.653 47.554 123.653 46.7679 123.653 45.9932C123.676 45.2184 123.688 44.4665 123.688 43.7373C123.391 44.0791 123.038 44.25 122.628 44.25C122.241 44.25 121.933 44.1133 121.705 43.8398C121.477 43.5664 121.363 43.2702 121.363 42.9512C121.363 42.7917 121.397 42.6208 121.466 42.4385C122.013 41.1852 122.434 40.0003 122.73 38.8838C123.027 37.7445 123.243 36.7533 123.38 35.9102C123.539 35.0443 123.631 34.3607 123.653 33.8594C123.676 33.3581 123.688 33.096 123.688 33.0732C123.688 32.7314 123.813 32.4352 124.063 32.1846C124.314 31.9339 124.622 31.8086 124.986 31.8086C125.328 31.8086 125.624 31.9339 125.875 32.1846C126.126 32.4124 126.251 32.7087 126.251 33.0732V43.5664C126.775 42.6777 127.299 41.8005 127.823 40.9346C128.347 40.0687 128.894 39.2939 129.464 38.6104C130.056 37.9268 130.683 37.3799 131.344 36.9697C132.027 36.5368 132.779 36.3203 133.6 36.3203C134.374 36.3203 135.081 36.5026 135.719 36.8672C136.357 37.2318 136.904 37.7331 137.359 38.3711C137.815 39.0091 138.157 39.7725 138.385 40.6611C138.635 41.527 138.761 42.4613 138.761 43.4639ZM123.585 54.4355C122.468 56.9421 121.454 59.46 120.543 61.9893C119.654 64.5186 118.902 66.9567 118.287 69.3037C117.649 71.6507 117.159 73.8496 116.817 75.9004C116.476 77.9512 116.305 79.7513 116.305 81.3008C116.305 81.6882 116.327 82.1097 116.373 82.5654C116.419 83.0212 116.51 83.4427 116.646 83.8301C116.783 84.2174 116.977 84.5365 117.228 84.7871C117.478 85.0605 117.809 85.1973 118.219 85.1973C118.971 85.1973 119.62 84.7188 120.167 83.7617C120.714 82.8275 121.17 81.5514 121.534 79.9336C121.922 78.3385 122.241 76.4928 122.491 74.3965C122.742 72.3229 122.936 70.1468 123.072 67.8682C123.232 65.5895 123.346 63.2881 123.414 60.9639C123.482 58.6624 123.539 56.4863 123.585 54.4355ZM161.729 49.2402C161.16 49.2402 160.659 49.1947 160.226 49.1035C159.884 49.7871 159.474 50.4251 158.995 51.0176C158.517 51.5872 157.958 52.0885 157.32 52.5215C156.705 52.9544 156.01 53.2962 155.235 53.5469C154.461 53.7975 153.618 53.9229 152.706 53.9229C151.635 53.9229 150.655 53.7292 149.767 53.3418C148.878 52.9772 148.103 52.4645 147.442 51.8037C146.782 51.1201 146.269 50.3112 145.904 49.377C145.54 48.4199 145.357 47.3717 145.357 46.2324C145.357 44.7741 145.619 43.5094 146.144 42.4385C146.668 41.3447 147.271 40.4447 147.955 39.7383C148.639 39.0091 149.322 38.4736 150.006 38.1318C150.689 37.7673 151.202 37.585 151.544 37.585C151.931 37.585 152.216 37.6875 152.398 37.8926C152.604 38.0977 152.706 38.3711 152.706 38.7129C152.706 39.1003 152.581 39.3965 152.33 39.6016C152.102 39.7839 151.806 39.9661 151.441 40.1484C151.077 40.3307 150.689 40.5928 150.279 40.9346C149.869 41.2536 149.482 41.6637 149.117 42.165C148.775 42.6663 148.491 43.2588 148.263 43.9424C148.035 44.626 147.921 45.3893 147.921 46.2324C147.921 46.9844 148.035 47.6908 148.263 48.3516C148.491 48.9896 148.821 49.5479 149.254 50.0264C149.687 50.4821 150.2 50.8467 150.792 51.1201C151.384 51.3708 152.045 51.4961 152.774 51.4961C154.073 51.4961 155.144 51.1999 155.987 50.6074C156.853 49.9922 157.514 49.2174 157.97 48.2832C156.625 47.5768 155.52 46.5742 154.654 45.2754C153.788 43.9766 153.355 42.5182 153.355 40.9004C153.355 39.6016 153.663 38.542 154.278 37.7217C154.916 36.9014 155.748 36.4912 156.773 36.4912C157.389 36.4912 157.97 36.6393 158.517 36.9355C159.063 37.2318 159.542 37.6989 159.952 38.3369C160.385 38.9749 160.727 39.7952 160.978 40.7979C161.228 41.8005 161.354 42.9967 161.354 44.3867C161.354 45.1159 161.262 45.8792 161.08 46.6768C161.217 46.6995 161.354 46.7109 161.49 46.7109C161.627 46.7109 161.775 46.7109 161.935 46.7109C162.709 46.7109 163.404 46.6198 164.02 46.4375C164.635 46.2552 165.193 45.9818 165.694 45.6172C166.196 45.2526 166.64 44.7855 167.027 44.2158C167.438 43.6462 167.825 42.9854 168.189 42.2334C168.258 42.0967 168.406 41.9714 168.634 41.8574C168.862 41.7207 169.09 41.6523 169.317 41.6523C169.614 41.6523 169.887 41.7777 170.138 42.0283C170.411 42.2562 170.548 42.5638 170.548 42.9512C170.548 43.1335 170.502 43.3385 170.411 43.5664C170.32 43.7715 170.229 43.9652 170.138 44.1475C169.75 44.8311 169.295 45.4919 168.771 46.1299C168.269 46.7451 167.665 47.292 166.959 47.7705C166.275 48.2262 165.501 48.5908 164.635 48.8643C163.769 49.1377 162.8 49.263 161.729 49.2402ZM155.885 40.627C155.885 41.0599 155.942 41.5156 156.056 41.9941C156.17 42.4727 156.34 42.9512 156.568 43.4297C156.819 43.8854 157.115 44.3298 157.457 44.7627C157.822 45.1729 158.243 45.526 158.722 45.8223C158.79 45.3438 158.824 44.8766 158.824 44.4209C158.824 43.8057 158.779 43.179 158.688 42.541C158.596 41.903 158.46 41.3219 158.277 40.7979C158.118 40.251 157.913 39.818 157.662 39.499C157.411 39.1572 157.115 38.9863 156.773 38.9863C156.637 38.9863 156.454 39.0889 156.227 39.2939C155.999 39.499 155.885 39.9434 155.885 40.627ZM187.569 43.5322C187.319 44.0563 187 44.6829 186.612 45.4121C186.248 46.1185 185.826 46.859 185.348 47.6338C184.869 48.4085 184.334 49.1833 183.741 49.958C183.149 50.71 182.499 51.3936 181.793 52.0088C181.109 52.6012 180.369 53.0798 179.571 53.4443C178.797 53.8317 177.965 54.0254 177.076 54.0254C175.709 54.0254 174.535 53.6038 173.556 52.7607C172.576 51.9176 171.744 50.8125 171.061 49.4453C170.377 48.0781 169.819 46.5286 169.386 44.7969C168.976 43.0423 168.657 41.265 168.429 39.4648C168.201 37.6419 168.041 35.876 167.95 34.167C167.882 32.458 167.848 30.9427 167.848 29.6211C167.848 27.707 167.905 25.7246 168.019 23.6738C168.155 21.623 168.36 19.6178 168.634 17.6582C168.907 15.6986 169.249 13.8415 169.659 12.0869C170.092 10.3324 170.593 8.79427 171.163 7.47266C171.756 6.15104 172.428 5.10286 173.18 4.32812C173.932 3.55339 174.786 3.16602 175.743 3.16602C176.495 3.16602 177.167 3.34831 177.76 3.71289C178.375 4.05469 178.888 4.62435 179.298 5.42188C179.708 6.2194 180.027 7.25618 180.255 8.53223C180.483 9.80827 180.597 11.3691 180.597 13.2148C180.597 15.4935 180.357 17.8519 179.879 20.29C179.4 22.7054 178.751 25.1436 177.931 27.6045C177.11 30.0654 176.142 32.5264 175.025 34.9873C173.909 37.4255 172.713 39.8066 171.437 42.1309C172.006 45.0247 172.77 47.3034 173.727 48.9668C174.684 50.6074 175.834 51.4277 177.179 51.4277C178.09 51.4277 178.967 51.0745 179.811 50.3682C180.654 49.639 181.428 48.7845 182.135 47.8047C182.841 46.8249 183.456 45.8337 183.98 44.8311C184.527 43.8057 184.949 42.9854 185.245 42.3701C185.359 42.1423 185.519 41.9714 185.724 41.8574C185.929 41.7207 186.157 41.6523 186.407 41.6523C186.795 41.6523 187.102 41.7891 187.33 42.0625C187.581 42.3359 187.706 42.6436 187.706 42.9854C187.706 43.1221 187.66 43.3044 187.569 43.5322ZM170.445 29.792C170.445 31.2503 170.479 32.6517 170.548 33.9961C170.616 35.3405 170.707 36.6279 170.821 37.8584C171.778 36.0127 172.69 34.0531 173.556 31.9795C174.422 29.8831 175.185 27.7754 175.846 25.6562C176.507 23.5143 177.031 21.3952 177.418 19.2988C177.828 17.1797 178.033 15.1631 178.033 13.249C178.033 10.5602 177.817 8.63477 177.384 7.47266C176.951 6.31055 176.37 5.72949 175.641 5.72949C175.162 5.72949 174.695 6.0599 174.239 6.7207C173.806 7.38151 173.396 8.28158 173.009 9.4209C172.621 10.5602 172.268 11.9046 171.949 13.4541C171.63 15.0036 171.357 16.667 171.129 18.4443C170.924 20.2217 170.753 22.0788 170.616 24.0156C170.502 25.9525 170.445 27.8779 170.445 29.792Z" fill="#FDD486"/>
</svg>
